<svg width="45" height="28" viewBox="0 0 45 28" fill="none" xmlns="http://www.w3.org/2000/svg">
<path d="M23.3449 27.9992C22.9243 27.9879 22.5043 27.9879 22.0849 27.9992C21.507 27.967 20.9291 27.9462 20.3512 27.9045C18.8199 27.7902 17.2996 27.5584 15.8038 27.211C10.7351 26.0345 6.04699 23.5933 2.17675 20.1152C1.81107 19.7893 1.46433 19.452 1.10622 19.1166C1.02249 19.0381 0.957705 18.9415 0.916743 18.8343C0.88535 18.7649 0.875609 18.6876 0.888791 18.6126C0.901973 18.5375 0.937466 18.4682 0.990638 18.4137C1.04267 18.3574 1.11054 18.3182 1.1853 18.3013C1.26006 18.2844 1.33819 18.2905 1.40938 18.3189C1.5037 18.3587 1.59546 18.4042 1.68412 18.4554C5.45021 20.7854 9.5701 22.4876 13.8825 23.4954C15.3301 23.8314 16.7891 24.0935 18.2594 24.2817C20.3694 24.5449 22.4969 24.64 24.622 24.5659C25.763 24.53 26.9013 24.4351 28.0325 24.2817C30.6804 23.9448 33.2891 23.3508 35.8219 22.5082C37.1493 22.0722 38.4506 21.5604 39.7194 20.9754C39.9119 20.8698 40.137 20.84 40.3503 20.892C40.5167 20.9345 40.6595 21.0409 40.7479 21.1882C40.8362 21.3354 40.8629 21.5115 40.8221 21.6783C40.8084 21.7252 40.7906 21.7709 40.7691 21.8147C40.6865 21.9734 40.5677 22.1104 40.4223 22.2145C39.2117 23.1612 37.9106 23.9863 36.5381 24.6777C33.9434 25.9884 31.1761 26.9249 28.3186 27.4592C26.6753 27.7547 25.0134 27.9351 23.3449 27.9992ZM41.3905 17.7676C42.0799 17.7683 42.7669 17.8464 43.4388 18.0006C43.6251 18.0502 43.8075 18.1136 43.9845 18.1901C44.1009 18.2397 44.2021 18.3193 44.2777 18.4208C44.3533 18.5224 44.4005 18.6422 44.4146 18.768C44.4568 19.0667 44.467 19.369 44.4449 19.6699C44.3086 21.4634 43.7551 23.2004 42.8287 24.7421C42.494 25.2964 42.084 25.8014 41.6103 26.2428C41.5174 26.3392 41.4022 26.4114 41.275 26.4531C41.2449 26.4651 41.2127 26.471 41.1803 26.4706C41.1479 26.4701 41.1159 26.4632 41.0862 26.4504C41.0564 26.4375 41.0295 26.4189 41.0069 26.3957C40.9844 26.3724 40.9667 26.3449 40.9548 26.3148C40.9412 26.2785 40.936 26.2397 40.9396 26.2011C40.9482 26.0925 40.9731 25.9858 41.0135 25.8847C41.3811 24.8994 41.7373 23.9217 42.0215 22.9042C42.1866 22.3465 42.3057 21.7762 42.3777 21.199C42.4027 20.9902 42.4059 20.7793 42.3872 20.5699C42.3817 20.3978 42.3219 20.2318 42.2164 20.0957C42.111 19.9595 41.9651 19.8603 41.7998 19.812C41.473 19.7073 41.1344 19.6436 40.7918 19.6225C39.8281 19.5807 38.8626 19.6226 37.9061 19.7476L36.6347 19.9048C36.5727 19.9211 36.5073 19.9178 36.4472 19.8954C36.3872 19.8731 36.3355 19.8327 36.2993 19.7798C36.2685 19.7201 36.255 19.653 36.2604 19.586C36.2658 19.519 36.2898 19.4549 36.3297 19.4008C36.4145 19.2828 36.5221 19.183 36.6461 19.1071C37.4234 18.5752 38.2966 18.1994 39.2173 18.0006C39.9336 17.8596 40.6607 17.7797 41.3905 17.7619V17.7676ZM29.7208 4.77714C29.9974 4.6104 30.2892 4.43419 30.5848 4.27882C31.359 3.87479 32.2268 3.68384 33.0991 3.72555C33.3891 3.71696 33.678 3.76558 33.9492 3.86863C34.2204 3.97168 34.4687 4.12713 34.6798 4.32613C34.8909 4.52512 35.0608 4.76375 35.1797 5.02839C35.2986 5.29304 35.3642 5.57851 35.3728 5.86851V5.94052C35.3842 6.06178 35.3842 6.18304 35.3842 6.31947V12.0568C35.3842 12.5551 35.3179 12.6252 34.8158 12.6252H33.4667C33.3781 12.6271 33.2895 12.6233 33.2014 12.6138C33.1359 12.6055 33.0747 12.5763 33.027 12.5306C32.9792 12.4849 32.9474 12.4251 32.9362 12.3599C32.9173 12.239 32.9097 12.1166 32.9134 11.9942V6.85947C32.9248 6.65447 32.9023 6.449 32.8471 6.25126C32.8016 6.08244 32.7037 5.93242 32.5675 5.82279C32.4313 5.71315 32.2638 5.64955 32.0892 5.64114C31.4332 5.6011 30.7777 5.72686 30.1831 6.00683C30.1432 6.01934 30.1085 6.04471 30.0845 6.07899C30.0605 6.11326 30.0485 6.15451 30.0505 6.19631V12.0227C30.0541 12.1305 30.0465 12.2385 30.0277 12.3448C30.0277 12.4151 29.9998 12.4826 29.95 12.5323C29.9003 12.5821 29.8328 12.61 29.7625 12.61H29.7511C29.5843 12.6214 29.4195 12.6214 29.2414 12.6214H28.0685C27.6574 12.6214 27.5683 12.521 27.5683 12.1117V6.88221C27.5719 6.69125 27.5535 6.50051 27.5134 6.31378C27.4759 6.13284 27.3795 5.96943 27.2393 5.84909C27.0991 5.72876 26.923 5.65829 26.7384 5.64872C26.0704 5.60532 25.4026 5.73588 24.8001 6.02767C24.7562 6.03966 24.7189 6.06848 24.6962 6.10787C24.6735 6.14726 24.6672 6.19403 24.6788 6.23799V12.142C24.6788 12.5513 24.5898 12.6404 24.1805 12.6404H22.695C22.3161 12.6404 22.2081 12.5286 22.2081 12.1534V4.45692C22.208 4.36678 22.2194 4.27699 22.2422 4.18976C22.2654 4.12695 22.3076 4.07294 22.363 4.03525C22.4183 3.99755 22.4841 3.97805 22.551 3.97945H23.9361C24.0249 3.98152 24.1104 4.01324 24.1791 4.06955C24.2477 4.12586 24.2956 4.20353 24.315 4.29019C24.37 4.44556 24.4022 4.58956 24.459 4.7544C24.5689 4.7544 24.6353 4.67672 24.7129 4.63314C25.3125 4.23521 25.9817 3.95368 26.6854 3.80323C27.2337 3.69171 27.7988 3.69171 28.3471 3.80323C28.8703 3.91562 29.3303 4.22498 29.6317 4.66724C29.6517 4.6949 29.6738 4.72088 29.698 4.74493C29.698 4.7544 29.7094 4.7544 29.7208 4.77714ZM13.3482 5.19777C13.425 5.17713 13.492 5.13018 13.5377 5.06514C13.7361 4.86287 13.9468 4.67303 14.1686 4.49671C14.7423 4.05139 15.4604 3.83407 16.1847 3.8866C16.4727 3.89797 16.5636 3.98703 16.5939 4.26555C16.6167 4.6445 16.6053 5.02346 16.6053 5.40241C16.6147 5.55436 16.6071 5.70689 16.5826 5.85715C16.5782 5.93874 16.5424 6.01546 16.4827 6.07126C16.423 6.12706 16.344 6.15761 16.2623 6.15652C16.1107 6.16412 15.9587 6.16032 15.8076 6.14515C15.0738 6.09709 14.3381 6.20293 13.6476 6.45589C13.4922 6.51084 13.4922 6.62073 13.4922 6.74389V12.3486C13.4888 12.4171 13.4592 12.4817 13.4094 12.529C13.3597 12.5762 13.2937 12.6025 13.2251 12.6025C13.1446 12.612 13.0635 12.6158 12.9825 12.6138H11.5425C11.4609 12.6157 11.3792 12.6119 11.2981 12.6025C11.2284 12.595 11.1635 12.5632 11.115 12.5126C11.0664 12.4619 11.0373 12.3958 11.0328 12.3258C11.0234 12.2377 11.0196 12.1491 11.0215 12.0606V4.52703C11.0215 4.01924 11.0764 3.9586 11.5899 3.9586H12.6528C12.7105 3.95034 12.7692 3.95362 12.8256 3.96826C12.882 3.98289 12.9349 4.00858 12.9813 4.04384C13.0276 4.0791 13.0665 4.12322 13.0957 4.17365C13.1249 4.22407 13.1437 4.27978 13.1512 4.33755C13.2156 4.62177 13.2819 4.90598 13.3482 5.19777ZM17.6682 8.27674V4.33755C17.6796 4.07229 17.78 3.97187 18.0472 3.9586C18.6232 3.94724 19.1992 3.94724 19.7752 3.9586C20.0291 3.9586 20.1068 4.03629 20.1295 4.29208C20.139 4.38777 20.1428 4.48394 20.1409 4.58008V11.9564C20.1409 12.0776 20.1295 12.2008 20.1182 12.322C20.1135 12.3898 20.0837 12.4533 20.0346 12.5003C19.9856 12.5472 19.9208 12.5742 19.8529 12.5759C19.7902 12.5854 19.7268 12.5892 19.6634 12.5873H18.1192C18.0672 12.5892 18.0151 12.5854 17.9638 12.5759C17.8878 12.5714 17.816 12.5398 17.7611 12.4871C17.7062 12.4343 17.672 12.3637 17.6645 12.2879C17.655 12.1998 17.6512 12.1112 17.6531 12.0227C17.6682 10.8006 17.6682 9.54054 17.6682 8.27674ZM18.9529 0.000466887C19.1299 -0.00702453 19.3068 0.0193421 19.4739 0.0781517C20.0727 0.278995 20.3834 0.798158 20.3266 1.47458C20.3072 1.75557 20.1923 2.02148 20.001 2.22824C19.8098 2.435 19.5536 2.5702 19.275 2.61144C19.0295 2.65691 18.7777 2.65691 18.5323 2.61144C17.9013 2.49017 17.4371 2.02406 17.4807 1.22827C17.5242 0.43247 18.068 0.000466887 18.9529 0.000466887ZM9.37302 7.36916C9.32413 6.7948 9.17805 6.23291 8.94102 5.70746C8.48628 4.76008 7.78901 4.05713 6.72605 3.81271C6.15422 3.67868 5.55954 3.67517 4.98617 3.80244C4.41279 3.92971 3.87545 4.18449 3.41403 4.54787C3.34504 4.6147 3.2665 4.6709 3.18097 4.71461C3.15823 4.70324 3.13739 4.69187 3.13739 4.6805C3.10329 4.57061 3.08055 4.45882 3.04834 4.34892C2.95929 4.07229 2.84939 3.96997 2.55002 3.96997C2.21654 3.96997 1.87359 3.98134 1.54201 3.96997C1.42073 3.95182 1.29685 3.96337 1.18101 4.00364C1.06517 4.0439 0.960834 4.11167 0.876953 4.20113C0.876953 8.0778 0.876953 11.9696 0.888322 15.8311C0.954261 15.9316 1.04777 16.011 1.15766 16.0597C1.26755 16.1084 1.38915 16.1245 1.50791 16.1059C1.9077 16.0945 2.3056 16.1059 2.70539 16.1059C3.40266 16.1059 3.40266 16.1059 3.40266 15.4181V12.2538C3.40266 12.1761 3.36855 12.0871 3.44624 12.0208C4.00449 12.4496 4.67238 12.7123 5.3732 12.7787C5.83982 12.8395 6.31408 12.7987 6.76345 12.6591C7.21281 12.5194 7.62666 12.2842 7.97659 11.9696C8.52005 11.4681 8.91805 10.8292 9.1286 10.1203C9.39573 9.22933 9.47889 8.29331 9.37302 7.36916ZM6.72037 9.6637C6.64373 10.0039 6.46607 10.313 6.21068 10.5504C5.92626 10.7931 5.56517 10.9273 5.1913 10.9294C4.63307 10.967 4.07525 10.8503 3.57887 10.5921C3.51913 10.5667 3.46878 10.5233 3.43483 10.468C3.40087 10.4126 3.38499 10.3481 3.38939 10.2833V8.26538C3.38939 7.60221 3.40076 6.93905 3.38939 6.2721C3.38344 6.1985 3.40194 6.125 3.44202 6.06299C3.48211 6.00098 3.54153 5.95394 3.61108 5.92915C4.19382 5.62744 4.85976 5.52621 5.50583 5.64114C5.73578 5.67282 5.95369 5.7632 6.13855 5.90359C6.3234 6.04397 6.46897 6.22962 6.56121 6.44262C6.7285 6.79986 6.82624 7.18568 6.84921 7.57948C6.94147 8.27562 6.90032 8.98296 6.72795 9.6637H6.72037ZM39.4238 8.99865C40.2539 9.15298 41.1042 9.16452 41.9381 9.03275C42.4219 8.96861 42.8904 8.81846 43.3213 8.58938C43.5657 8.46142 43.7819 8.28561 43.9571 8.07241C44.1322 7.8592 44.2626 7.61296 44.3407 7.34832C44.7291 5.95378 44.1304 4.54598 42.679 4.02682C41.9708 3.78947 41.2179 3.71625 40.4773 3.81271C38.7265 4.01355 37.5859 4.97609 37.0667 6.65484C36.7273 7.78084 36.7201 8.98085 37.0459 10.1109C37.4248 11.5831 38.4082 12.4585 39.888 12.7635C41.1757 13.0076 42.5056 12.8929 43.7325 12.4319C43.8505 12.4021 43.9538 12.3306 44.0234 12.2307C44.093 12.1309 44.1242 12.0092 44.1114 11.8881C44.1019 11.6229 44.1114 11.3462 44.1114 11.0677C44.1114 10.7361 43.9788 10.6357 43.6586 10.7134C43.3383 10.7911 43.0276 10.8574 42.7112 10.9237C42.0242 11.0639 41.3168 11.0716 40.627 10.9465C40.1748 10.8591 39.7713 10.6066 39.495 10.2382C39.2187 9.86975 39.0893 9.41171 39.132 8.95317C39.2116 8.96454 39.3234 8.97591 39.4238 8.99675V8.99865ZM39.1509 7.30284C39.1884 7.04227 39.2591 6.78757 39.3613 6.54494C39.6947 5.73588 40.392 5.45925 41.1006 5.50283C41.3027 5.51263 41.5014 5.55751 41.688 5.63546C41.8277 5.69527 41.9487 5.79156 42.0384 5.91424C42.1281 6.03692 42.1831 6.18147 42.1977 6.33273C42.23 6.52232 42.2183 6.71679 42.1636 6.90115C42.031 7.30095 41.7108 7.46958 41.3223 7.54537C41.0866 7.60053 40.8437 7.61906 40.6023 7.60032C40.1647 7.59913 39.7277 7.56556 39.2949 7.4999C39.1244 7.47905 39.1244 7.47905 39.1509 7.30284Z" fill="#00A8E1"/>
</svg>
