<?xml version="1.0" encoding="UTF-8"?>
<svg id="Layer_2" data-name="Layer 2" xmlns="http://www.w3.org/2000/svg" xmlns:xlink="http://www.w3.org/1999/xlink" viewBox="0 0 708.29 384.67">
  <defs>
    <style>
      .cls-1 {
        fill: #222375;
      }

      .cls-2 {
        fill: url(#radial-gradient);
      }
    </style>
    <radialGradient id="radial-gradient" cx="2039.94" cy="188.67" fx="2039.94" fy="188.67" r="1056.48" gradientTransform="translate(-329.97 100.98) scale(.48)" gradientUnits="userSpaceOnUse">
      <stop offset="0" stop-color="#1f2071"/>
      <stop offset=".09" stop-color="#1d3185"/>
      <stop offset=".18" stop-color="#1c3c91"/>
      <stop offset=".27" stop-color="#1c4096"/>
      <stop offset=".37" stop-color="#1e4497" stop-opacity=".97"/>
      <stop offset=".5" stop-color="#26519b" stop-opacity=".87"/>
      <stop offset=".63" stop-color="#3367a2" stop-opacity=".71"/>
      <stop offset=".77" stop-color="#4485ac" stop-opacity=".49"/>
      <stop offset=".91" stop-color="#5babb8" stop-opacity=".21"/>
      <stop offset="1" stop-color="#6cc8c2" stop-opacity="0"/>
    </radialGradient>
  </defs>
  <g id="Layer_2-2" data-name="Layer 2">
    <g>
      <path class="cls-1" d="m321.56,260.64c.39.06.47.07.86.12,6.38.87,12.65,2.01,17.45,4.16,4.45,1.96,7.05,4.45,9.43,8.88,3.62,6.72,3.86,16.12.59,23.25-2.45,5.3-7.81,9.74-12.7,12.1-5.09,2.46-10.09,3.64-15.84,4.29-10.05,1.1-20.9-.98-29.94-5.35-5.35-2.61-11.88-7.11-15.18-12.91-2.42-4.24-2.35-9.76.6-13.8,4.7-6.43,14.76-7.85,22.34-7.58,5.78.22,16.18,2.01,21.67,3.96,1.52.55,7.13,2.73,8.11,3.74.69.7,1.14,1.71.82,2.64-1.25,3.84-10.57,5.86-13.26,6.27-7.2,1.1-10.94-1.63-19.13-4.86-2.03-.8-4.74-1.68-6.81-1.87-3.72-.35-8.21.69-8.92,4.75-.35,2.09,2.1,4.05,3.97,4.87,4.39,1.89,7.96,2.57,12.29,2.63,12.77.21,27.13-1.89,37.57-9.3,1.43-1.02,2.83-2.52,2.85-4.4.04-3.8-6.62-6.13-6.62-6.13-7.04-2.94-20.04-4.36-26.74-4.91-7.03-.61-18.09-1.52-20.74-1.91-2.73-.39-5.7-.94-8.07-2.01-2.38-1.07-4.7-3.47-5.4-6.14-1.23-4.79.34-10.68,3-14.51,6.98-10.04,23.33-13.85,35.55-15.36,11.82-1.47,30.93-1.46,42.55,4.71,1.79.96,2.71,1.86,2.33,3.77-.76,3.6-3.46,5.92-6.74,6.94-3.44,1.09-10.55,1.52-13.68,1.71-14,.79-30.92.37-44.25,4.01-1.04.3-2.85.78-3.44,1.44-2.09,2.27,3.87,2.91,5.15,3.18.38.09.45.1.85.14l29.47,3.47m-83.29-62.43s2.28-3.42,4.18-6c3.47-4.72,9.76-11.27,14.49-15.32,1.45-1.23,3.16-2.63,3.16-2.63,0,0-2.67.27-4.18.58-3.59.7-8.86,4.2-11.49,6.46-4.34,3.72-9.12,9.76-6.96,15.13.31.76.8,1.78.8,1.78m24.14,6.46c6.86-.47,13.29-2.44,19.27-5.77,5.87-3.28,14.5-9.68,13.61-17.21-.27-2.44-1.87-4.28-3.88-5.13-2.62-1.13-3.98-.95-7.32.04-2.43.72-3.52,1.15-5.82,2.46-6.73,3.91-16.27,12.28-21.45,18.96-1.2,1.58-2.41,3.34-3.35,4.55-.6.74-1.06,1.43-1,1.61.2.76,7.28.68,9.96.5m-17.47,12.83c-.71.75-1.45,2.56-2.23,3.86-.41.7-1.18,1.6-1.69,1.96-1.78,1.31-3.3,1.38-5.02-.14-2.41-2.13-3.81-5.45-3.91-8.66-.05-1.4.19-2.95-.08-4.14-.44-2-2.44-4.05-3.52-5.96-1.27-2.25-2.29-6.18-2.41-8.71-.44-7.9,3.73-15.17,9.14-20.92,5.45-5.8,12.58-10.63,20.32-13.91,7.33-3.09,18.06-5.19,26.11-2.4,2.62.9,6.27,3.13,8.1,5.46.39.49.71,1.01,1.11,1.27.35.23,1.29.32,2.03.45,2.57.44,6.26,2.39,7.77,3.69,3.03,2.61,4.69,5.11,5.46,8.74,1.54,7.3-2.66,15.31-7.45,20.18-8.2,8.39-16.3,14.29-26.79,18.4-4.61,1.8-11.78,3.48-17.01,3.01-1.62-.14-3.29-.56-4.87-.67-.8-.07-3.75-.83-4.07-1.04-.39-.3-.9-.56-.99-.46m9.37,16.19c.32.06.81.2,1.24.36,3.68,1.4,5.19,4.81,6.1,8.54,2.1,8.68,2.99,27.88,3.34,35.4.25,5.64.4,11.19.63,16.77.2,4.72.58,11-.41,15.43-.36,1.59-1.42,3.44-2.95,4.39-1.75,1.12-5.72,1.2-7.91.75-5.38-1.12-7.13-4.57-7.9-9.9-1.83-12.71-.95-37.65.13-48.17.36-3.47,1.67-14.61,3.48-19.28.62-1.58,1.94-4.74,4.24-4.3m-163.8,21.14s-8.01.57-13.53,1.18c-7.02.76-20.2,3.03-27.81,5.75-2.28.82-6.92,2.76-7.32,5.1-.42,2.43,1.09,4.34,2.77,6.31.97,1.14,6.47,6.43,8.01,7.72,6.46,5.39,19.56,13.71,29.21,17.75,3.31,1.37,8.8,3.33,8.8,3.33,0,0-.41-15.61-.33-30.99.04-8.12.22-16.15.22-16.15m146.94,6.21c.46,4.19-.62,12.13-.8,13.17-.34,2.42-2.16,7.97-2.46,8.65-1.47,3.38-2.91,6.15-4.45,8.91-2.63,4.73-8.87,12.23-12.58,15.44-13.8,11.92-35.15,18.71-53.47,20.95-12.43,1.5-26.71,1.28-39.89-1.16-4.53-.82-11.28-2.38-11.28-2.38,0,0,.02,2.7-.2,4.59-.1.87-.76,3.14-1.12,3.88-.96,1.98-2.53,3-4.82,3.44-2.76.51-5.69.68-8.24-.41-4.18-1.76-5.69-5.68-6.42-10.19-.59-3.62-1.21-9.9-1.21-9.9,0,0-3.13-1.48-5.74-2.78-8.02-3.96-15.64-8.74-22.3-13.67-1.85-1.38-9.78-8.02-11.53-9.67-4.91-4.66-9.33-9.3-12.68-15.25-2.61-4.65-3.36-8.77-1.38-13.7,2.74-6.86,12.58-12.03,19.32-14.98,4.95-2.19,20.32-7.21,26.71-8.13,3.02-.43,7.69-1.27,7.98-1.46.12-.09.2-.17.28-.27.15-.21.4-7.01.34-9.49-.06-2.45,1.81-18.5,2.41-21.9.32-1.83,1.71-8.9,3.13-10.76.93-1.25,2.57-1.15,3.91-.33,7.32,4.55,9.55,20.35,10.09,28.39.33,4.9.49,12.26.49,12.26,0,0,8.4-.25,13.57-.1,5.02.12,10.56.91,15.77,1.74,6.67,1.07,19.69,3.91,27.15,7.69,6.14,3.11,11.89,8.36,13.76,13.92,1.73,5.09,1.47,8.62-1.16,13.21-2.96,5.19-8.57,9.05-14.26,9.37-1.69.1-8.06-.75-10.02-2.26-.77-.61-.73-1.7-.17-2.43.21-.27,3.19-1.84,4.94-2.77.88-.48,1.61-1,2.3-1.62,1.46-1.29,2.77-2.7,2.63-4.36-.2-2.15-2.48-3.48-4.66-4.34-10.19-4.05-30.53-7.41-40.37-7.99-3.85-.23-9.32-.42-9.32-.42l1.16,54.29s4.52.87,8.09,1.44c2.05.31,10.72,1.09,13.02,1.14,17.54.47,37.12-1.1,53.22-8.7,7.07-3.33,13.55-7.47,18.46-13.07,6.47-7.42,9.86-17.57,8.97-28.17-.98-11.59-9.14-25.33-15.64-33.7-17.2-22.12-46.67-40.31-72.61-50.97-26.47-10.88-52.64-17.14-80.74-18.19-7.24-.27-23.04.1-31.02,2.3-1.14.32-2.29.71-3.35.95-.84.2-2.15.75-2.52,1.05-.2.16-.4.38-.4.38,0,0,.49.27.96.47.85.37,4.41.59,6.25.93,1.65.31,3.36,1.18,4.04,2.39.64,1.14.73,2.05-.04,3.01-1.81,2.2-8.62,1.83-11.62,1.35-3.11-.5-6.99-1.45-7.71-4.16-.83-3.2.69-6.33,2.33-9.22,3.3-5.8,8.01-8.8,14.92-10.69,9.81-2.7,22.21-4.59,31.47-4.94,20.98-.79,40.83,2.87,61.15,9.05,11.63,3.51,26.86,9.42,38.01,14.79,8,3.86,20.6,10.95,27.69,15.59,2.23,1.47,15.3,11.07,17.33,12.76,4.24,3.47,9.78,8.44,13.78,12.42,7.76,7.69,17.41,19.48,22.1,28.84,1.13,2.24,2,4.44,3.46,7.04.5.89,2.64,6.21,3,7.75.36,1.52.87,3.76.95,3.85.1.81,1.09,5.39,1.01,7.15Zm263.71-12c-9.82,2.26-35.66,3.52-35.66,3.52l-3.26,10.21s12.91-1.11,22.3-.12c0,0,3.04-.35,3.4,3.45.12,3.55-.3,7.36-.3,7.36,0,0-.2,2.31-3.46,2.89-3.54.59-27.82,1.53-27.82,1.53l-3.93,13.3s-1.46,3.08,1.81,2.2c3.04-.82,28.49-5.59,31.8-4.9,3.55.88,7.48,5.62,6.35,9.93-1.36,5.35-26.75,21.54-42.22,20.42,0,0-8.12.52-15-10.45-6.39-10.45,2.43-30.24,2.43-30.24,0,0-4.04-9.24-1.11-12.37,0,0,1.74-1.58,6.83-1.94l6.22-12.88s-7.09.49-11.31-4.73c-3.93-4.95-4.25-7.22-1.24-8.59,3.22-1.59,32.75-6.98,53.06-6.3,0,0,7.06-.69,13.18,11.56,0,0,2.97,4.96-2.08,6.15h0Zm-76.42,49.51c-2.6,6.12-9.48,12.66-18.03,8.6-8.44-4.07-21.87-31.57-21.87-31.57,0,0-5.1-10.25-6.08-9.99,0,0-1.1-2-1.78,9.21-.7,11.16.14,32.91-4.32,36.34-4.21,3.43-9.32,2.07-11.97-1.94-2.41-3.96-3.41-13.35-2.09-29.84,1.54-16.53,5.38-34.11,10.29-39.58,4.9-5.44,8.83-1.49,10.36-.06,0,0,6.55,5.94,17.36,23.38l1.91,3.23s9.82,16.47,10.85,16.44c0,0,.8.75,1.52.21,1.03-.29.61-5.57.61-5.57,0,0-2.04-17.95-10.99-48.34,0,0-1.36-3.79-.44-7.34.91-3.59,4.51-1.91,4.51-1.91,0,0,13.88,6.98,20.62,29.58,6.7,22.61,2.2,43.01-.45,49.17h0Zm149.41-13.54c-6.32,11.03-24.16,34.11-47.87,28.66-7.83,18.99-14.41,38.2-18.17,66.93,0,0-.83,5.58-5.47,3.65-4.6-1.62-12.18-9.26-13.71-19.84-1.65-13.9,4.54-37.39,17.18-64.33-3.69-5.99-6.2-14.56-4.05-26.76,0,0,3.18-22.65,25.93-43.06,0,0,2.73-2.36,4.31-1.63,1.74.73.94,8.1-.45,11.68-1.43,3.56-11.56,21.1-11.56,21.1,0,0-6.32,11.84-4.54,21.18,11.93-18.34,39.05-55.33,55.86-43.67,5.64,4.04,8.25,12.83,8.25,22.3,0,8.31-2,17.16-5.71,23.78h0Zm-4.9-29.04s-.94-7.29-8.07.74c-6.13,6.78-17.19,19.48-26.09,36.74,9.34-1.05,18.35-6.12,21.08-8.7,4.43-3.93,14.75-14.6,13.09-28.77h0Zm135.51-1.66h-43.45c-.87-14.77-2.65-29.16-5.45-43.97-.29-1.53-1.62-2.64-3.18-2.64h-10.01c-.87,0-1.7.39-2.26,1.07-.57.7-.79,1.58-.62,2.45,2.84,14.34,4.65,28.45,5.54,43.11h-41.8c-1.95,0-3.53,1.57-3.53,3.52v9.03c0,1.95,1.58,3.54,3.53,3.54h42.4c.03,2.23.05,4.23.05,6.1,0,13.02-.56,23.74-1.87,35.85-.1.93.2,1.87.84,2.56.61.69,1.5,1.08,2.42,1.08h9.29c1.81,0,3.31-1.36,3.5-3.17,1.27-12.19,1.81-23.05,1.81-36.32,0-1.87-.02-3.87-.05-6.1h42.86c1.94,0,3.53-1.59,3.53-3.54v-9.03c0-1.95-1.59-3.53-3.53-3.53Z"/>
      <path class="cls-2" d="m649.98,186.46c-22.13-54.48-59.56-100.91-108.24-134.27C491.9,18.04,433.47,0,372.78,0c-100.34,0-193.44,49.87-249.04,133.38-.61.91-.76,2.03-.41,3.08.37,1.06,1.17,1.86,2.21,2.22l7.78,2.62c.47.15.94.22,1.4.22,1.45,0,2.79-.72,3.6-1.92,25.5-37.47,60.02-68.66,99.81-90.22,41.09-22.25,87.65-34.02,134.65-34.03,56.77,0,111.55,16.73,158.42,48.41,45.73,30.9,81.24,74.01,102.71,124.67.64,1.51,2.12,2.49,3.76,2.49h9.3c1.07,0,2.08-.54,2.69-1.44.61-.89.72-2.02.32-3.03Z"/>
    </g>
  </g>
</svg>