<svg width="48" height="48" viewBox="0 0 48 48" fill="none" xmlns="http://www.w3.org/2000/svg">
<path d="M38.7392 11.4C36.3024 11.4 33.9136 12.3888 32.1904 14.112L24 22.3024L15.8096 14.112C14.0864 12.3888 11.6992 11.4 9.2608 11.4C4.1552 11.4 0 15.5552 0 20.6608V27.3392C0 32.4448 4.1552 36.6 9.2608 36.6C11.6976 36.6 14.0864 35.6112 15.8096 33.888L24 25.6976L32.1904 33.888C33.9136 35.6112 36.3008 36.6 38.7392 36.6C43.8448 36.6 48 32.4448 48 27.3392V20.6608C48 15.5552 43.8448 11.4 38.7392 11.4ZM14.112 32.1904C12.8352 33.4672 11.0672 34.2 9.2608 34.2C5.4784 34.2 2.4 31.1216 2.4 27.3392V20.6608C2.4 16.8784 5.4784 13.8 9.2608 13.8C11.0672 13.8 12.8352 14.5328 14.112 15.8096L22.3024 24L14.112 32.1904ZM45.6 27.3392C45.6 31.1216 42.5216 34.2 38.7392 34.2C36.9328 34.2 35.1648 33.4672 33.888 32.1904L25.6976 24L33.888 15.8096C35.1648 14.5328 36.9328 13.8 38.7392 13.8C42.5216 13.8 45.6 16.8784 45.6 20.6608V27.3392Z" fill="url(#paint0_linear_403_14170)"/>
<defs>
<linearGradient id="paint0_linear_403_14170" x1="2.07491" y1="29.1249" x2="32.6372" y2="3.20644" gradientUnits="userSpaceOnUse">
<stop stop-color="#753BBD"/>
<stop offset="0.6" stop-color="#00A9CE"/>
</linearGradient>
</defs>
</svg>
