<svg width="48" height="30" viewBox="0 0 48 30" fill="none" xmlns="http://www.w3.org/2000/svg">
<g clip-path="url(#clip0_403_14672)">
<path d="M46.614 6.18727C44.8157 6.94501 42.8182 7.09098 40.9289 6.60272V-0.000778198H37.6271V5.79368C35.349 5.27016 32.9695 5.39899 30.7612 6.1654L31.8545 9.16103C34.1723 8.39572 35.856 8.61438 37.6271 9.0517V15.3272H40.9289V9.86074C41.6923 10.0103 42.4687 10.0836 43.2467 10.0794C44.8377 10.0652 46.4113 9.74601 47.8822 9.13916L46.614 6.18727Z" fill="#FF00D2"/>
<path d="M25.1634 11.1507L25.5132 11.0195C25.4914 10.9709 25.4766 10.9193 25.4695 10.8664C25.3993 10.6733 25.2993 10.3971 25.1888 10.092L25.1877 10.0889C24.8856 9.25466 24.5058 8.20568 24.4418 8.04575H24.4199L23.5672 8.37373C20.8042 9.42658 18.566 11.5235 17.3354 14.2119C16.6394 15.7794 16.1966 17.4474 16.0234 19.1536C15.9388 19.9043 15.7777 20.6443 15.5424 21.3621C14.7115 23.8548 13.1153 25.6697 10.6882 26.7192C10.4258 26.8285 10.1633 26.9379 9.87911 27.0472L10.9724 29.9991C11.0649 29.963 11.1599 29.9338 11.2567 29.9116C14.4054 28.7965 16.6794 26.7848 18.057 23.8329C18.7529 22.2655 19.1957 20.5975 19.3689 18.8912C19.4619 18.0484 19.6527 17.2192 19.9374 16.4204C20.3536 15.2041 21.04 14.0981 21.9452 13.1853C22.8503 12.2726 23.9506 11.577 25.1634 11.1507Z" fill="#0F0125"/>
<path fill-rule="evenodd" clip-rule="evenodd" d="M6.64292 25.5167C4.87771 25.5061 3.18811 24.7988 1.94175 23.5488C1.04461 22.6604 0.448187 21.5135 0.23621 20.2689C-0.00299029 19.0055 0.126041 17.7 0.60793 16.5079C0.958916 15.6259 1.51333 14.8392 2.22601 14.212C2.93511 13.5771 3.7804 13.1133 4.69685 12.8563C5.44789 12.6231 6.22831 12.4979 7.01464 12.4846C8.31944 12.4884 9.59799 12.8515 10.71 13.5342C11.4775 13.9883 12.1407 14.5993 12.656 15.3272C13.153 16.0489 13.4886 16.8693 13.64 17.7324C13.9237 19.1209 13.7471 20.5641 13.1371 21.8432C12.7126 22.7045 12.1087 23.465 11.3659 24.0735C10.5997 24.6736 9.71169 25.0989 8.76391 25.3199C8.06746 25.471 7.35527 25.5371 6.64292 25.5167ZM6.89656 15.5896H6.85283C6.33978 15.5704 5.82969 15.6754 5.36595 15.8957C4.91176 16.1147 4.51494 16.4366 4.20706 16.8359C3.74953 17.4647 3.50443 18.223 3.50735 19.0007C3.50379 19.067 3.51118 19.1335 3.52921 19.1974C3.53295 19.3296 3.54757 19.4613 3.57294 19.591C3.65723 20.3539 4.01446 21.0606 4.57877 21.5808C5.15018 22.1159 5.89564 22.4265 6.6779 22.4555H6.94029C7.41206 22.4572 7.87975 22.3681 8.31784 22.1931C8.75627 22.0082 9.14558 21.7237 9.45487 21.3622C10.0004 20.7555 10.3039 19.9695 10.3076 19.1537C10.3456 18.4866 10.202 17.8216 9.89219 17.2295C9.26682 16.1581 8.26099 15.5896 6.89656 15.5896Z" fill="#0F0125"/>
<path d="M33.188 14.2339C34.2784 15.1768 34.9925 16.4809 35.1997 17.9074C35.2614 18.2906 35.2907 18.6782 35.2872 19.0663V25.0138H31.8761V19.0882C31.8921 18.372 31.7024 17.6663 31.3294 17.0546C31.0561 16.6208 30.6808 16.2605 30.2361 16.0051C29.7863 15.7557 29.2849 15.6136 28.7711 15.5896C28.0406 15.5187 27.3062 15.6793 26.672 16.0488C26.2639 16.3007 25.9136 16.636 25.6443 17.0328C25.3695 17.4211 25.1966 17.8722 25.1414 18.3447C25.0978 18.6122 25.0759 18.8828 25.0758 19.1538V25.0138H21.6647V24.8826C21.6647 24.2121 21.6623 23.5415 21.6599 22.871C21.655 21.5299 21.6501 20.1888 21.6647 18.8476C21.6676 17.4067 22.1787 16.013 23.1079 14.9118C24.1014 13.7173 25.4899 12.9183 27.0219 12.6596C29.3396 12.2441 31.4169 12.7033 33.188 14.2339Z" fill="#0F0125"/>
</g>
<defs>
<clipPath id="clip0_403_14672">
<rect width="47.7639" height="30" fill="white" transform="translate(0.118164 -0.000778198)"/>
</clipPath>
</defs>
</svg>
