<svg width="24" height="18" viewBox="0 0 24 18" fill="none" xmlns="http://www.w3.org/2000/svg">
<path fill-rule="evenodd" clip-rule="evenodd" d="M19.2498 9.8112H22.6913C23.4128 9.8112 23.9992 10.3984 23.9992 11.1192V16.0582C23.9992 16.3894 23.7304 16.6582 23.3992 16.6582H22.0993V16.9998C22.0993 17.331 21.8305 17.5997 21.4993 17.5997C21.1681 17.5997 20.8993 17.331 20.8993 16.9998V16.6582H3.0999V16.9998C3.0999 17.331 2.83111 17.5997 2.49992 17.5997C2.16873 17.5997 1.89994 17.331 1.89994 16.9998V16.6582H0.59998C0.268791 16.6582 0 16.3894 0 16.0582V11.1192C0 10.3976 0.58714 9.8112 1.30792 9.8112H12.35V0.999486C12.35 0.668297 12.6188 0.399506 12.95 0.399506C13.2812 0.399506 13.5499 0.668297 13.5499 0.999486V9.8112H18.0498V0.999486C18.0498 0.668297 18.3186 0.399506 18.6498 0.399506C18.981 0.399506 19.2498 0.668297 19.2498 0.999486V9.8112ZM1.20074 15.4582H22.8V11.1192C22.8 11.0592 22.752 11.0112 22.692 11.0112H9.43807V12.2935C9.43807 12.6247 9.16928 12.8935 8.83809 12.8935C8.5069 12.8935 8.23811 12.6247 8.23811 12.2935V11.0112H6.73738V12.2935C6.73738 12.6247 6.46859 12.8935 6.1374 12.8935C5.80621 12.8935 5.53742 12.6247 5.53742 12.2935V11.0112H4.03664V12.2935C4.03664 12.6247 3.76784 12.8935 3.43666 12.8935C3.10547 12.8935 2.83667 12.6247 2.83667 12.2935V11.0112H1.30875C1.24875 11.0112 1.20074 11.0592 1.20074 11.1192V15.4582ZM12.95 12.6343H20.5498C20.881 12.6343 21.1498 12.9031 21.1498 13.2343C21.1498 13.5655 20.881 13.8343 20.5498 13.8343H12.95C12.6189 13.8343 12.3501 13.5655 12.3501 13.2343C12.3501 12.9031 12.6189 12.6343 12.95 12.6343Z" fill="url(#paint0_linear_823_2784)"/>
<defs>
<linearGradient id="paint0_linear_823_2784" x1="1.03742" y1="12.4976" x2="19.9927" y2="0.722198" gradientUnits="userSpaceOnUse">
<stop stop-color="#753BBD"/>
<stop offset="0.6" stop-color="#00A9CE"/>
</linearGradient>
</defs>
</svg>
