<svg width="48" height="48" viewBox="0 0 48 48" fill="none" xmlns="http://www.w3.org/2000/svg">
<path fill-rule="evenodd" clip-rule="evenodd" d="M5 3.32635H43C45.7568 3.32635 48 5.56956 48 8.32635V39.6768C48 42.4336 45.7568 44.6768 43 44.6768H5C2.2432 44.6768 0 42.4336 0 39.6768V8.32635C0 5.56956 2.2432 3.32635 5 3.32635ZM43 5.72636H5C3.5664 5.72636 2.4 6.89275 2.4 8.32635V11.8767H45.6V8.32635C45.6 6.89275 44.4336 5.72636 43 5.72636ZM5 42.2768H43C44.4336 42.2768 45.6 41.1104 45.6 39.6768V14.2767H2.4V39.6768C2.4 41.1104 3.5664 42.2768 5 42.2768ZM5.48799 9.90393C5.34399 9.83993 5.216 9.75992 5.104 9.64952C4.992 9.53752 4.896 9.40953 4.848 9.26553C4.784 9.12153 4.752 8.96152 4.752 8.80153C4.752 8.48153 4.88 8.17753 5.104 7.95353C5.216 7.84153 5.34399 7.76152 5.48799 7.69752C5.93599 7.50552 6.464 7.63353 6.8 7.95353C7.024 8.17593 7.152 8.48153 7.152 8.80153C7.152 8.96152 7.12001 9.12153 7.05601 9.26553C6.99201 9.40953 6.912 9.53752 6.8 9.64952C6.576 9.87352 6.272 10.0015 5.952 10.0015C5.792 10.0015 5.63199 9.96793 5.48799 9.90393ZM9.85601 9.64956C10.08 9.87356 10.384 10.0016 10.704 10.0016C11.024 10.0016 11.328 9.87356 11.552 9.64956C11.664 9.53756 11.744 9.40957 11.808 9.26557C11.872 9.12157 11.904 8.96156 11.904 8.80156C11.904 8.48156 11.776 8.17597 11.552 7.95357C11.104 7.50557 10.288 7.50557 9.85601 7.95357C9.63201 8.17757 9.504 8.48156 9.504 8.80156C9.504 8.96156 9.536 9.12157 9.6 9.26557C9.648 9.40957 9.74401 9.53756 9.85601 9.64956ZM15.456 10.0016C15.136 10.0016 14.816 9.87356 14.608 9.64956C14.496 9.53756 14.4 9.40957 14.336 9.26557C14.288 9.12157 14.256 8.96156 14.256 8.80156C14.256 8.48156 14.384 8.17757 14.608 7.95357C15.04 7.50557 15.84 7.50557 16.304 7.95357C16.416 8.06557 16.496 8.19356 16.56 8.33756C16.624 8.49756 16.656 8.63996 16.656 8.80156C16.656 8.96156 16.624 9.12157 16.56 9.26557C16.496 9.40957 16.416 9.53756 16.304 9.64956C16.08 9.87356 15.76 10.0016 15.456 10.0016ZM21.7632 29.2784C23.4768 28 24.6032 25.976 24.6032 23.6784C24.6032 19.8176 21.4608 16.6752 17.6 16.6752C13.7392 16.6752 10.5968 19.8176 10.5968 23.6784C10.5968 25.976 11.7232 28 13.4368 29.2784C11.9648 30.016 10.6864 31.1312 9.76162 32.5712C8.87202 33.9552 8.40161 35.696 8.40161 37.6032V38.6768C8.40161 39.3392 8.93921 39.8768 9.60161 39.8768C10.264 39.8768 10.8016 39.3392 10.8016 38.6768V37.6032C10.8016 36.1584 11.1392 34.8656 11.7808 33.8688C13.0624 31.8752 15.2384 30.6848 17.6016 30.6848C19.9648 30.6848 22.1408 31.8752 23.4224 33.8688C24.0624 34.8656 24.4016 36.1584 24.4016 37.6032V38.6768C24.4016 39.3392 24.9392 39.8768 25.6016 39.8768C26.264 39.8768 26.8016 39.3392 26.8016 38.6768V37.6032C26.8016 35.6976 26.3312 33.9568 25.4416 32.5712C24.5168 31.1312 23.2384 30.016 21.7664 29.2784H21.7632ZM12.9952 23.6784C12.9952 21.1408 15.0608 19.0752 17.5984 19.0752C20.136 19.0752 22.2016 21.1408 22.2016 23.6784C22.2016 26.216 20.136 28.2832 17.5984 28.2832C15.0608 28.2832 12.9952 26.2176 12.9952 23.6784ZM39.7344 16.8768C40.1024 16.632 40.5776 16.6096 40.9664 16.8176C41.3568 17.0272 41.6 17.4336 41.6 17.8752V24.2752C41.6 24.7168 41.3568 25.1232 40.9664 25.3328C40.7888 25.4288 40.5952 25.4752 40.4 25.4752C40.168 25.4752 39.9344 25.408 39.7344 25.2736L36.8 23.3168V24.2752C36.8 24.9376 36.2624 25.4752 35.6 25.4752H29.2C28.5376 25.4752 28 24.9376 28 24.2752V17.8752C28 17.2128 28.5376 16.6752 29.2 16.6752H35.6C36.2624 16.6752 36.8 17.2128 36.8 17.8752V18.8336L39.7344 16.8768ZM30.4 23.0752H34.4V19.0752H30.4V23.0752ZM37.7632 21.0752L39.2 22.0336V22.032V20.1168L37.7632 21.0752Z" fill="url(#paint0_linear_403_14177)"/>
<defs>
<linearGradient id="paint0_linear_403_14177" x1="2.07491" y1="32.4109" x2="43.5414" y2="10.98" gradientUnits="userSpaceOnUse">
<stop stop-color="#753BBD"/>
<stop offset="0.6" stop-color="#00A9CE"/>
</linearGradient>
</defs>
</svg>
